<svg width="584" height="650" viewBox="0 0 584 650" fill="none" xmlns="http://www.w3.org/2000/svg">
<path d="M491.667 125L464.97 525.43C462.633 560.5 461.463 578.037 453.89 591.333C447.22 603.04 437.16 612.45 425.037 618.327C411.267 625 393.69 625 358.54 625H224.792C189.642 625 172.067 625 158.296 618.327C146.172 612.45 136.113 603.04 129.444 591.333C121.869 578.037 120.7 560.5 118.362 525.43L91.6667 125M25 125H558.333M425 125L415.98 97.9357C407.237 71.7083 402.863 58.5947 394.757 48.8993C387.597 40.3377 378.403 33.7107 368.017 29.626C356.253 25 342.433 25 314.787 25H268.547C240.9 25 227.08 25 215.317 29.626C204.931 33.7107 195.736 40.3377 188.576 48.8993C180.468 58.5947 176.097 71.7083 167.355 97.9357L158.333 125M358.333 258.333V491.667M225 258.333V491.667" stroke="black" stroke-width="50" stroke-linecap="round" stroke-linejoin="round"/>
</svg>
