<svg width="982" height="198" viewBox="0 0 982 198" fill="none" xmlns="http://www.w3.org/2000/svg">
<path d="M233.257 138.608C241.79 138.608 248.359 136.779 252.964 133.12C257.569 129.327 259.871 123.839 259.871 116.658C259.871 110.697 258.246 105.683 254.996 101.619C251.881 97.554 246.734 94.4377 239.555 92.2698L223.099 87.3921C212.806 84.2758 205.221 79.6013 200.345 73.3687C195.47 67.0006 193.032 59.2098 193.032 49.9964C193.032 42.9508 194.386 36.5827 197.095 30.8921C199.939 25.2014 204.409 20.6625 210.503 17.2752C216.734 13.8879 224.86 12.1942 234.883 12.1942C240.978 12.1942 247.276 12.9395 253.777 14.4299C260.278 15.7848 266.847 18.0204 273.483 21.1367L267.795 36.3795C261.294 33.5342 255.402 31.5018 250.12 30.2824C244.973 28.9275 240.029 28.25 235.289 28.25C227.569 28.25 221.542 29.8759 217.208 33.1277C213.009 36.244 210.91 41.4604 210.91 48.777C210.91 54.0612 212.332 58.5324 215.176 62.1906C218.02 65.7134 223.099 68.6265 230.413 70.9299L246.869 75.8076C267.456 81.9047 277.75 95.0474 277.75 115.236C277.75 126.888 274.228 136.372 267.185 143.689C260.142 150.87 248.833 154.46 233.257 154.46C226.892 154.46 220.12 153.715 212.941 152.225C205.898 150.599 198.585 148.092 191 144.705L196.485 129.665C203.664 132.917 210.097 135.221 215.786 136.576C221.61 137.93 227.433 138.608 233.257 138.608Z" fill="#857DE3"/>
<path d="M315.915 96.1313V108.122C315.915 118.42 317.811 126.21 321.604 131.495C325.396 136.643 331.423 139.218 339.685 139.218C347.812 139.218 356.547 137.118 365.893 132.917L370.972 146.941C359.866 151.954 349.098 154.46 338.669 154.46C325.667 154.46 315.78 150.328 309.008 142.063C302.236 133.798 298.85 122.484 298.85 108.122V96.1313C298.85 81.7692 302.236 70.4556 309.008 62.1906C315.78 53.9257 325.667 49.7932 338.669 49.7932C343.545 49.7932 348.556 50.4706 353.703 51.8255C358.985 53.045 364.268 54.8064 369.55 57.1097L364.471 71.3363C360.001 69.4395 355.667 67.9491 351.468 66.8651C347.405 65.7812 343.477 65.2392 339.685 65.2392C331.423 65.2392 325.396 67.8813 321.604 73.1655C317.811 78.3142 315.915 85.9694 315.915 96.1313Z" fill="#857DE3"/>
<path d="M443.748 65.4424C439.956 65.4424 435.486 66.3909 430.339 68.2878C425.328 70.1847 419.233 74.0462 412.055 79.8723V152.428H395.396V2.03238H412.055V65.2392C419.098 59.2776 425.463 55.2128 431.152 53.045C436.84 50.8771 442.393 49.7932 447.811 49.7932C457.156 49.7932 464.267 52.774 469.143 58.7356C474.154 64.5618 476.66 72.8945 476.66 83.7338V152.428H460.001V86.1727C460.001 72.3525 454.583 65.4424 443.748 65.4424Z" fill="#857DE3"/>
<path d="M591.098 95.9281V108.122C591.098 122.484 587.373 133.798 579.924 142.063C572.61 150.328 562.114 154.46 548.434 154.46C534.89 154.46 524.394 150.328 516.944 142.063C509.495 133.798 505.771 122.484 505.771 108.122V95.9281C505.771 81.8369 509.427 70.6589 516.741 62.3939C524.19 53.9934 534.755 49.7932 548.434 49.7932C562.114 49.7932 572.61 53.9934 579.924 62.3939C587.373 70.6589 591.098 81.8369 591.098 95.9281ZM573.829 95.9281C573.829 86.3082 571.662 78.7884 567.328 73.3687C562.994 67.8136 556.696 65.036 548.434 65.036C540.308 65.036 534.01 67.8136 529.54 73.3687C525.206 78.7884 523.039 86.3082 523.039 95.9281V108.122C523.039 118.149 525.206 125.872 529.54 131.291C534.01 136.711 540.308 139.421 548.434 139.421C556.696 139.421 562.994 136.711 567.328 131.291C571.662 125.872 573.829 118.149 573.829 108.122V95.9281Z" fill="#857DE3"/>
<path d="M701.011 95.9281V108.122C701.011 122.484 697.287 133.798 689.837 142.063C682.524 150.328 672.027 154.46 658.347 154.46C644.803 154.46 634.307 150.328 626.858 142.063C619.408 133.798 615.684 122.484 615.684 108.122V95.9281C615.684 81.8369 619.341 70.6589 626.654 62.3939C634.104 53.9934 644.668 49.7932 658.347 49.7932C672.027 49.7932 682.524 53.9934 689.837 62.3939C697.287 70.6589 701.011 81.8369 701.011 95.9281ZM683.743 95.9281C683.743 86.3082 681.576 78.7884 677.241 73.3687C672.907 67.8136 666.609 65.036 658.347 65.036C650.221 65.036 643.923 67.8136 639.454 73.3687C635.119 78.7884 632.952 86.3082 632.952 95.9281V108.122C632.952 118.149 635.119 125.872 639.454 131.291C643.923 136.711 650.221 139.421 658.347 139.421C666.609 139.421 672.907 136.711 677.241 131.291C681.576 125.872 683.743 118.149 683.743 108.122V95.9281Z" fill="#857DE3"/>
<path d="M731.082 128.04V2.03238H747.741V127.227C747.741 130.885 748.283 133.662 749.367 135.559C750.586 137.321 752.956 138.201 756.477 138.201H759.728V153.444H755.055C746.116 153.444 739.886 151.073 736.364 146.331C732.843 141.589 731.082 135.492 731.082 128.04Z" fill="#857DE3"/>
<path d="M802.528 27.2338H783.837V8.53598H802.528V27.2338ZM801.512 152.428H784.853V51.8255H801.512V152.428Z" fill="#857DE3"/>
<path d="M890.251 66.4586H857.339V152.428H840.679V66.4586H823.208V51.8255H840.679V35.1601C840.679 28.9275 841.695 23.1691 843.727 17.8849C845.894 12.4652 849.348 8.1295 854.088 4.87771C858.828 1.6259 865.127 0 872.982 0C876.91 0 881.041 0.474223 885.375 1.42267C889.844 2.23561 893.975 3.52278 897.768 5.28418L893.095 19.3076C886.188 16.5977 880.16 15.2428 875.014 15.2428C869.325 15.2428 864.923 16.801 861.808 19.9173C858.828 23.0336 857.339 28.0468 857.339 34.9568V51.8255H890.251V66.4586Z" fill="#857DE3"/>
<path d="M942.79 162.59C938.456 174.784 933.106 183.659 926.74 189.214C920.51 194.905 884.774 197.75 873.533 197.75V183.288C878.138 183.152 909.065 180.543 912.316 179.459C915.702 178.375 918.682 176.139 921.255 172.752C923.964 169.5 926.537 164.622 928.975 158.119L931.007 153.038L894.844 51.8255H911.91L928.772 100.806L939.133 132.104L949.088 100.806L965.544 51.8255H982L942.79 162.59Z" fill="#857DE3"/>
<path d="M61.875 167.062C61.875 184.149 48.0238 198 30.9375 198C13.8512 198 1.47521e-06 184.149 1.47521e-06 167.062C1.47521e-06 149.976 13.8512 136.125 30.9375 136.125C48.0238 136.125 61.875 149.976 61.875 167.062Z" fill="#857DE3"/>
<path d="M86.625 198C94.7505 198 102.797 196.4 110.304 193.29C117.811 190.181 124.632 185.623 130.377 179.877C136.123 174.132 140.681 167.311 143.79 159.804C146.9 152.297 148.5 144.251 148.5 136.125C148.5 127.999 146.9 119.953 143.79 112.446C140.681 104.939 136.123 98.1184 130.377 92.3728C124.632 86.6271 117.811 82.0695 110.304 78.96C102.797 75.8504 94.7505 74.25 86.625 74.25L86.625 198Z" fill="#857DE3"/>
<path d="M61.875 123.75C53.7495 123.75 45.7035 122.15 38.1965 119.04C30.6894 115.931 23.8684 111.373 18.1228 105.627C12.3771 99.8816 7.81946 93.0605 4.70996 85.5535C1.60045 78.0465 -3.55179e-07 70.0005 0 61.875C3.55179e-07 53.7494 1.60045 45.7035 4.70996 38.1965C7.81947 30.6894 12.3771 23.8684 18.1228 18.1228C23.8684 12.3771 30.6894 7.81946 38.1965 4.70995C45.7035 1.60044 53.7495 -7.10357e-07 61.875 0L61.875 123.75Z" fill="#857DE3"/>
<path d="M148.5 61.875V0H86.625C86.625 34.1726 114.327 61.875 148.5 61.875Z" fill="#857DE3"/>
<path d="M199.856 193.483C201.644 193.483 203.021 193.099 203.986 192.333C204.951 191.538 205.434 190.389 205.434 188.884C205.434 187.635 205.093 186.585 204.412 185.733C203.759 184.882 202.68 184.229 201.176 183.775L197.727 182.753C195.57 182.1 193.98 181.121 192.959 179.815C191.937 178.481 191.426 176.849 191.426 174.919C191.426 173.443 191.71 172.109 192.277 170.916C192.873 169.724 193.81 168.773 195.087 168.064C196.393 167.354 198.096 166.999 200.197 166.999C201.474 166.999 202.794 167.155 204.156 167.468C205.519 167.751 206.896 168.22 208.287 168.873L207.094 172.066C205.732 171.47 204.497 171.044 203.39 170.789C202.311 170.505 201.275 170.363 200.282 170.363C198.664 170.363 197.401 170.703 196.493 171.385C195.613 172.038 195.173 173.13 195.173 174.663C195.173 175.77 195.471 176.707 196.067 177.473C196.663 178.211 197.727 178.822 199.26 179.304L202.709 180.326C207.023 181.603 209.181 184.357 209.181 188.586C209.181 191.027 208.443 193.014 206.967 194.547C205.491 196.051 203.12 196.804 199.856 196.804C198.522 196.804 197.103 196.647 195.598 196.335C194.122 195.995 192.59 195.469 191 194.76L192.15 191.609C193.654 192.29 195.002 192.773 196.194 193.057C197.415 193.341 198.636 193.483 199.856 193.483Z" fill="#857DE3"/>
<path d="M224.63 178.155C223.836 178.155 222.941 178.367 221.948 178.793C220.954 179.191 219.706 179.985 218.201 181.178V196.378H214.71V175.302H218.031V178.24C219.535 176.991 220.869 176.125 222.033 175.643C223.197 175.132 224.346 174.876 225.482 174.876C226.816 174.876 227.923 175.188 228.803 175.813C229.683 176.409 230.336 177.275 230.762 178.41C232.323 177.076 233.714 176.153 234.934 175.643C236.183 175.132 237.404 174.876 238.596 174.876C240.469 174.876 241.903 175.501 242.896 176.75C243.89 177.97 244.386 179.716 244.386 181.987V196.378H240.895V182.497C240.895 179.602 239.845 178.155 237.744 178.155C236.949 178.155 236.041 178.367 235.019 178.793C234.026 179.191 232.777 179.985 231.272 181.178C231.301 181.291 231.315 181.419 231.315 181.561C231.315 181.703 231.315 181.845 231.315 181.987V196.378H227.824V182.497C227.824 179.602 226.759 178.155 224.63 178.155Z" fill="#857DE3"/>
<path d="M267.129 196.591C265.823 196.591 264.773 196.293 263.978 195.697C263.212 195.1 262.672 194.362 262.36 193.483C260.969 194.703 259.706 195.569 258.571 196.08C257.435 196.562 256.3 196.804 255.165 196.804C253.319 196.804 251.957 196.208 251.077 195.015C250.197 193.823 249.757 192.361 249.757 190.63C249.757 189.466 249.97 188.43 250.396 187.522C250.822 186.613 251.545 185.904 252.567 185.393C253.589 184.853 254.966 184.584 256.697 184.584C257.464 184.584 258.301 184.641 259.209 184.754C260.118 184.839 261.04 184.953 261.977 185.095V182.242C261.977 180.652 261.622 179.574 260.912 179.006C260.231 178.41 259.224 178.112 257.889 178.112C256.073 178.112 254.043 178.609 251.801 179.602L250.694 176.707C252 176.111 253.249 175.657 254.441 175.344C255.633 175.032 256.839 174.876 258.06 174.876C260.047 174.876 261.565 175.203 262.616 175.855C263.666 176.508 264.39 177.374 264.787 178.453C265.184 179.531 265.383 180.709 265.383 181.987V191.098C265.383 191.751 265.511 192.305 265.766 192.759C266.022 193.184 266.533 193.397 267.299 193.397H267.767V196.591H267.129ZM253.206 190.587C253.206 191.552 253.433 192.333 253.887 192.929C254.341 193.525 254.994 193.823 255.846 193.823C256.584 193.823 257.435 193.61 258.4 193.184C259.365 192.73 260.558 191.836 261.977 190.502V187.82C260.047 187.507 258.344 187.351 256.868 187.351C255.562 187.351 254.625 187.621 254.057 188.16C253.49 188.7 253.206 189.509 253.206 190.587Z" fill="#857DE3"/>
<path d="M283.784 178.367C282.506 178.367 281.257 178.595 280.037 179.049C278.845 179.503 277.567 180.369 276.205 181.646V196.378H272.714V175.302H276.035V178.708C277.482 177.289 278.802 176.295 279.994 175.728C281.215 175.16 282.478 174.876 283.784 174.876V178.367Z" fill="#857DE3"/>
<path d="M299.929 195.611C298.339 196.406 296.65 196.804 294.862 196.804C293.329 196.804 292.123 196.491 291.243 195.867C290.391 195.242 289.781 194.405 289.412 193.355C289.071 192.305 288.901 191.141 288.901 189.863V178.367H285.239V175.302H288.901V169.426H292.392V175.302H299.29V178.367H292.392V189.736C292.392 191.212 292.634 192.234 293.116 192.801C293.627 193.341 294.408 193.61 295.458 193.61C295.969 193.61 296.494 193.553 297.033 193.44C297.601 193.298 298.211 193.071 298.864 192.759L299.929 195.611Z" fill="#857DE3"/>
<path d="M320.479 193.483C322.267 193.483 323.644 193.099 324.609 192.333C325.574 191.538 326.057 190.389 326.057 188.884C326.057 187.635 325.716 186.585 325.035 185.733C324.382 184.882 323.303 184.229 321.799 183.775L318.35 182.753C316.193 182.1 314.603 181.121 313.581 179.815C312.56 178.481 312.049 176.849 312.049 174.919C312.049 173.443 312.332 172.109 312.9 170.916C313.496 169.724 314.433 168.773 315.71 168.064C317.016 167.354 318.719 166.999 320.82 166.999C322.097 166.999 323.417 167.155 324.779 167.468C326.142 167.751 327.518 168.22 328.909 168.873L327.717 172.066C326.355 171.47 325.12 171.044 324.013 170.789C322.934 170.505 321.898 170.363 320.905 170.363C319.287 170.363 318.024 170.703 317.115 171.385C316.235 172.038 315.795 173.13 315.795 174.663C315.795 175.77 316.093 176.707 316.69 177.473C317.286 178.211 318.35 178.822 319.883 179.304L323.332 180.326C327.646 181.603 329.803 184.357 329.803 188.586C329.803 191.027 329.065 193.014 327.589 194.547C326.113 196.051 323.743 196.804 320.479 196.804C319.145 196.804 317.726 196.647 316.221 196.335C314.745 195.995 313.212 195.469 311.623 194.76L312.772 191.609C314.277 192.29 315.625 192.773 316.817 193.057C318.038 193.341 319.258 193.483 320.479 193.483Z" fill="#857DE3"/>
<path d="M352.023 184.541V187.096C352.023 190.105 351.242 192.475 349.681 194.206C348.148 195.938 345.949 196.804 343.082 196.804C340.243 196.804 338.043 195.938 336.482 194.206C334.921 192.475 334.14 190.105 334.14 187.096V184.541C334.14 181.589 334.907 179.247 336.44 177.516C338.001 175.756 340.215 174.876 343.082 174.876C345.949 174.876 348.148 175.756 349.681 177.516C351.242 179.247 352.023 181.589 352.023 184.541ZM348.404 184.541C348.404 182.526 347.95 180.951 347.041 179.815C346.133 178.651 344.813 178.069 343.082 178.069C341.379 178.069 340.059 178.651 339.122 179.815C338.214 180.951 337.759 182.526 337.759 184.541V187.096C337.759 189.196 338.214 190.814 339.122 191.95C340.059 193.085 341.379 193.653 343.082 193.653C344.813 193.653 346.133 193.085 347.041 191.95C347.95 190.814 348.404 189.196 348.404 187.096V184.541Z" fill="#857DE3"/>
<path d="M358.325 191.268V164.87H361.817V191.098C361.817 191.865 361.93 192.446 362.157 192.844C362.413 193.213 362.909 193.397 363.647 193.397H364.329V196.591H363.349C361.476 196.591 360.17 196.094 359.432 195.1C358.694 194.107 358.325 192.83 358.325 191.268Z" fill="#857DE3"/>
<path d="M382.58 196.378V193.397C381.104 194.675 379.785 195.569 378.621 196.08C377.457 196.562 376.293 196.804 375.129 196.804C373.256 196.804 371.822 196.193 370.829 194.973C369.836 193.724 369.339 191.978 369.339 189.736V175.302H372.83V189.225C372.83 190.701 373.086 191.794 373.597 192.503C374.136 193.184 374.931 193.525 375.981 193.525C376.776 193.525 377.67 193.326 378.663 192.929C379.657 192.532 380.892 191.737 382.368 190.545V175.302H385.859V196.378H382.58Z" fill="#857DE3"/>
<path d="M404.959 195.611C403.369 196.406 401.681 196.804 399.892 196.804C398.359 196.804 397.153 196.491 396.273 195.867C395.422 195.242 394.811 194.405 394.442 193.355C394.102 192.305 393.931 191.141 393.931 189.863V178.367H390.27V175.302H393.931V169.426H397.423V175.302H404.32V178.367H397.423V189.736C397.423 191.212 397.664 192.234 398.147 192.801C398.657 193.341 399.438 193.61 400.488 193.61C400.999 193.61 401.524 193.553 402.064 193.44C402.631 193.298 403.242 193.071 403.895 192.759L404.959 195.611Z" fill="#857DE3"/>
<path d="M413.257 170.15H409.339V166.233H413.257V170.15ZM413.044 196.378H409.552V175.302H413.044V196.378Z" fill="#857DE3"/>
<path d="M437.261 184.541V187.096C437.261 190.105 436.481 192.475 434.92 194.206C433.387 195.938 431.187 196.804 428.32 196.804C425.482 196.804 423.282 195.938 421.721 194.206C420.159 192.475 419.379 190.105 419.379 187.096V184.541C419.379 181.589 420.145 179.247 421.678 177.516C423.239 175.756 425.453 174.876 428.32 174.876C431.187 174.876 433.387 175.756 434.92 177.516C436.481 179.247 437.261 181.589 437.261 184.541ZM433.642 184.541C433.642 182.526 433.188 180.951 432.28 179.815C431.372 178.651 430.052 178.069 428.32 178.069C426.617 178.069 425.297 178.651 424.36 179.815C423.452 180.951 422.998 182.526 422.998 184.541V187.096C422.998 189.196 423.452 190.814 424.36 191.95C425.297 193.085 426.617 193.653 428.32 193.653C430.052 193.653 431.372 193.085 432.28 191.95C433.188 190.814 433.642 189.196 433.642 187.096V184.541Z" fill="#857DE3"/>
<path d="M453.74 178.155C452.945 178.155 452.008 178.353 450.93 178.751C449.879 179.148 448.602 179.957 447.098 181.178V196.378H443.606V175.302H446.927V178.24C448.432 176.962 449.794 176.082 451.015 175.6C452.264 175.117 453.456 174.876 454.591 174.876C456.55 174.876 458.04 175.501 459.062 176.75C460.112 177.97 460.637 179.716 460.637 181.987V196.378H457.146V182.497C457.146 179.602 456.01 178.155 453.74 178.155Z" fill="#857DE3"/>
<path d="M473.082 193.695C475.921 193.695 477.34 192.73 477.34 190.8C477.34 189.977 477.085 189.324 476.574 188.842C476.063 188.359 475.126 187.947 473.763 187.607L471.422 187.011C469.69 186.585 468.399 185.847 467.547 184.797C466.696 183.718 466.27 182.441 466.27 180.965C466.27 179.886 466.511 178.893 466.994 177.984C467.476 177.048 468.243 176.295 469.293 175.728C470.343 175.16 471.706 174.876 473.38 174.876C474.459 174.876 475.552 175.004 476.659 175.259C477.794 175.486 478.944 175.884 480.108 176.451L479 179.389C476.928 178.453 475.055 177.984 473.38 177.984C470.911 177.984 469.676 178.907 469.676 180.752C469.676 181.461 469.903 182.072 470.357 182.583C470.811 183.094 471.663 183.505 472.912 183.817L475.254 184.413C477.127 184.868 478.504 185.606 479.384 186.628C480.264 187.649 480.704 188.969 480.704 190.587C480.704 191.751 480.448 192.815 479.937 193.781C479.455 194.717 478.66 195.455 477.553 195.995C476.474 196.534 475.012 196.804 473.167 196.804C471.947 196.804 470.726 196.676 469.506 196.42C468.314 196.165 467.079 195.753 465.801 195.186L466.738 192.29C467.959 192.773 469.066 193.128 470.059 193.355C471.053 193.582 472.06 193.695 473.082 193.695Z" fill="#857DE3"/>
<path d="M506.609 178.367H499.712V196.378H496.22V178.367H492.559V175.302H496.22V171.811C496.22 170.505 496.433 169.298 496.859 168.191C497.313 167.056 498.037 166.148 499.031 165.466C500.024 164.785 501.344 164.445 502.99 164.445C503.814 164.445 504.679 164.544 505.588 164.743C506.524 164.913 507.39 165.183 508.185 165.552L507.206 168.489C505.758 167.922 504.495 167.638 503.416 167.638C502.224 167.638 501.301 167.964 500.649 168.617C500.024 169.27 499.712 170.32 499.712 171.768V175.302H506.609V178.367Z" fill="#857DE3"/>
<path d="M527.115 184.541V187.096C527.115 190.105 526.335 192.475 524.773 194.206C523.241 195.938 521.041 196.804 518.174 196.804C515.335 196.804 513.136 195.938 511.574 194.206C510.013 192.475 509.233 190.105 509.233 187.096V184.541C509.233 181.589 509.999 179.247 511.532 177.516C513.093 175.756 515.307 174.876 518.174 174.876C521.041 174.876 523.241 175.756 524.773 177.516C526.335 179.247 527.115 181.589 527.115 184.541ZM523.496 184.541C523.496 182.526 523.042 180.951 522.134 179.815C521.225 178.651 519.905 178.069 518.174 178.069C516.471 178.069 515.151 178.651 514.214 179.815C513.306 180.951 512.852 182.526 512.852 184.541V187.096C512.852 189.196 513.306 190.814 514.214 191.95C515.151 193.085 516.471 193.653 518.174 193.653C519.905 193.653 521.225 193.085 522.134 191.95C523.042 190.814 523.496 189.196 523.496 187.096V184.541Z" fill="#857DE3"/>
<path d="M544.53 178.367C543.253 178.367 542.004 178.595 540.783 179.049C539.591 179.503 538.314 180.369 536.951 181.646V196.378H533.46V175.302H536.781V178.708C538.229 177.289 539.549 176.295 540.741 175.728C541.961 175.16 543.224 174.876 544.53 174.876V178.367Z" fill="#857DE3"/>
<path d="M565.051 193.483C566.839 193.483 568.216 193.099 569.181 192.333C570.146 191.538 570.629 190.389 570.629 188.884C570.629 187.635 570.288 186.585 569.607 185.733C568.954 184.882 567.875 184.229 566.371 183.775L562.922 182.753C560.765 182.1 559.175 181.121 558.153 179.815C557.131 178.481 556.621 176.849 556.621 174.919C556.621 173.443 556.904 172.109 557.472 170.916C558.068 169.724 559.005 168.773 560.282 168.064C561.588 167.354 563.291 166.999 565.392 166.999C566.669 166.999 567.989 167.155 569.351 167.468C570.714 167.751 572.09 168.22 573.481 168.873L572.289 172.066C570.927 171.47 569.692 171.044 568.585 170.789C567.506 170.505 566.47 170.363 565.477 170.363C563.859 170.363 562.596 170.703 561.687 171.385C560.807 172.038 560.367 173.13 560.367 174.663C560.367 175.77 560.665 176.707 561.262 177.473C561.858 178.211 562.922 178.822 564.455 179.304L567.904 180.326C572.218 181.603 574.375 184.357 574.375 188.586C574.375 191.027 573.637 193.014 572.161 194.547C570.685 196.051 568.315 196.804 565.051 196.804C563.717 196.804 562.298 196.647 560.793 196.335C559.317 195.995 557.784 195.469 556.195 194.76L557.344 191.609C558.849 192.29 560.197 192.773 561.389 193.057C562.61 193.341 563.83 193.483 565.051 193.483Z" fill="#857DE3"/>
<path d="M589.825 178.155C589.03 178.155 588.136 178.367 587.143 178.793C586.149 179.191 584.9 179.985 583.396 181.178V196.378H579.905V175.302H583.226V178.24C584.73 176.991 586.064 176.125 587.228 175.643C588.392 175.132 589.541 174.876 590.677 174.876C592.011 174.876 593.118 175.188 593.998 175.813C594.878 176.409 595.531 177.275 595.956 178.41C597.517 177.076 598.908 176.153 600.129 175.643C601.378 175.132 602.598 174.876 603.791 174.876C605.664 174.876 607.097 175.501 608.091 176.75C609.084 177.97 609.581 179.716 609.581 181.987V196.378H606.09V182.497C606.09 179.602 605.04 178.155 602.939 178.155C602.144 178.155 601.236 178.367 600.214 178.793C599.221 179.191 597.972 179.985 596.467 181.178C596.496 181.291 596.51 181.419 596.51 181.561C596.51 181.703 596.51 181.845 596.51 181.987V196.378H593.018V182.497C593.018 179.602 591.954 178.155 589.825 178.155Z" fill="#857DE3"/>
<path d="M632.324 196.591C631.018 196.591 629.968 196.293 629.173 195.697C628.406 195.1 627.867 194.362 627.555 193.483C626.164 194.703 624.901 195.569 623.766 196.08C622.63 196.562 621.495 196.804 620.359 196.804C618.514 196.804 617.152 196.208 616.272 195.015C615.392 193.823 614.952 192.361 614.952 190.63C614.952 189.466 615.165 188.43 615.591 187.522C616.016 186.613 616.74 185.904 617.762 185.393C618.784 184.853 620.161 184.584 621.892 184.584C622.658 184.584 623.496 184.641 624.404 184.754C625.312 184.839 626.235 184.953 627.172 185.095V182.242C627.172 180.652 626.817 179.574 626.107 179.006C625.426 178.41 624.418 178.112 623.084 178.112C621.268 178.112 619.238 178.609 616.996 179.602L615.889 176.707C617.194 176.111 618.443 175.657 619.635 175.344C620.828 175.032 622.034 174.876 623.255 174.876C625.241 174.876 626.76 175.203 627.81 175.855C628.861 176.508 629.584 177.374 629.982 178.453C630.379 179.531 630.578 180.709 630.578 181.987V191.098C630.578 191.751 630.706 192.305 630.961 192.759C631.217 193.184 631.728 193.397 632.494 193.397H632.962V196.591H632.324ZM618.401 190.587C618.401 191.552 618.628 192.333 619.082 192.929C619.536 193.525 620.189 193.823 621.041 193.823C621.779 193.823 622.63 193.61 623.595 193.184C624.56 192.73 625.752 191.836 627.172 190.502V187.82C625.242 187.507 623.538 187.351 622.062 187.351C620.757 187.351 619.82 187.621 619.252 188.16C618.685 188.7 618.401 189.509 618.401 190.587Z" fill="#857DE3"/>
<path d="M648.978 178.367C647.701 178.367 646.452 178.595 645.232 179.049C644.039 179.503 642.762 180.369 641.4 181.646V196.378H637.908V175.302H641.229V178.708C642.677 177.289 643.997 176.295 645.189 175.728C646.41 175.16 647.673 174.876 648.978 174.876V178.367Z" fill="#857DE3"/>
<path d="M665.123 195.611C663.534 196.406 661.845 196.804 660.057 196.804C658.524 196.804 657.317 196.491 656.438 195.867C655.586 195.242 654.976 194.405 654.607 193.355C654.266 192.305 654.096 191.141 654.096 189.863V178.367H650.434V175.302H654.096V169.426H657.587V175.302H664.485V178.367H657.587V189.736C657.587 191.212 657.828 192.234 658.311 192.801C658.822 193.341 659.602 193.61 660.653 193.61C661.164 193.61 661.689 193.553 662.228 193.44C662.796 193.298 663.406 193.071 664.059 192.759L665.123 195.611Z" fill="#857DE3"/>
<path d="M685.002 195.143C683.725 195.768 682.447 196.193 681.17 196.42C679.893 196.676 678.715 196.804 677.636 196.804C674.599 196.804 672.328 195.938 670.824 194.206C669.348 192.475 668.61 190.105 668.61 187.096V184.541C668.61 181.618 669.348 179.276 670.824 177.516C672.328 175.756 674.443 174.876 677.168 174.876C678.615 174.876 679.935 175.174 681.128 175.77C682.348 176.338 683.313 177.218 684.023 178.41C684.761 179.574 685.13 181.078 685.13 182.923C685.13 184.115 684.96 185.478 684.619 187.011H672.059V187.096C672.059 189.253 672.498 190.885 673.378 191.992C674.287 193.099 675.734 193.653 677.721 193.653C678.63 193.653 679.623 193.539 680.702 193.312C681.809 193.085 682.887 192.73 683.938 192.248L685.002 195.143ZM677.168 177.942C675.522 177.942 674.273 178.481 673.421 179.56C672.598 180.61 672.144 182.1 672.059 184.03H681.596C681.681 183.519 681.724 183.037 681.724 182.583C681.724 180.993 681.269 179.829 680.361 179.091C679.481 178.325 678.417 177.942 677.168 177.942Z" fill="#857DE3"/>
<path d="M702.242 178.367C700.965 178.367 699.716 178.595 698.495 179.049C697.303 179.503 696.026 180.369 694.663 181.646V196.378H691.172V175.302H694.493V178.708C695.941 177.289 697.26 176.295 698.453 175.728C699.673 175.16 700.936 174.876 702.242 174.876V178.367Z" fill="#857DE3"/>
<path d="M722.763 193.483C724.551 193.483 725.928 193.099 726.893 192.333C727.858 191.538 728.341 190.389 728.341 188.884C728.341 187.635 728 186.585 727.319 185.733C726.666 184.882 725.587 184.229 724.083 183.775L720.634 182.753C718.477 182.1 716.887 181.121 715.865 179.815C714.843 178.481 714.332 176.849 714.332 174.919C714.332 173.443 714.616 172.109 715.184 170.916C715.78 169.724 716.717 168.773 717.994 168.064C719.3 167.354 721.003 166.999 723.103 166.999C724.381 166.999 725.701 167.155 727.063 167.468C728.426 167.751 729.802 168.22 731.193 168.873L730.001 172.066C728.639 171.47 727.404 171.044 726.297 170.789C725.218 170.505 724.182 170.363 723.189 170.363C721.571 170.363 720.307 170.703 719.399 171.385C718.519 172.038 718.079 173.13 718.079 174.663C718.079 175.77 718.377 176.707 718.973 177.473C719.57 178.211 720.634 178.822 722.167 179.304L725.616 180.326C729.93 181.603 732.087 184.357 732.087 188.586C732.087 191.027 731.349 193.014 729.873 194.547C728.397 196.051 726.027 196.804 722.763 196.804C721.429 196.804 720.009 196.647 718.505 196.335C717.029 195.995 715.496 195.469 713.907 194.76L715.056 191.609C716.561 192.29 717.909 192.773 719.101 193.057C720.322 193.341 721.542 193.483 722.763 193.483Z" fill="#857DE3"/>
<path d="M740.086 184.584V187.096C740.086 189.253 740.483 190.885 741.278 191.992C742.073 193.071 743.336 193.61 745.068 193.61C746.771 193.61 748.601 193.17 750.56 192.29L751.625 195.228C749.297 196.278 747.04 196.804 744.855 196.804C742.13 196.804 740.058 195.938 738.638 194.206C737.219 192.475 736.509 190.105 736.509 187.096V184.584C736.509 181.575 737.219 179.205 738.638 177.473C740.058 175.742 742.13 174.876 744.855 174.876C745.877 174.876 746.927 175.018 748.005 175.302C749.112 175.557 750.219 175.926 751.326 176.409L750.262 179.389C749.325 178.992 748.417 178.68 747.537 178.453C746.685 178.226 745.862 178.112 745.068 178.112C743.336 178.112 742.073 178.666 741.278 179.773C740.483 180.851 740.086 182.455 740.086 184.584Z" fill="#857DE3"/>
<path d="M766.877 178.155C766.082 178.155 765.145 178.353 764.066 178.751C763.016 179.148 761.739 179.957 760.234 181.178V196.378H756.743V164.87H760.234V178.112C761.711 176.863 763.045 176.012 764.237 175.557C765.429 175.103 766.593 174.876 767.728 174.876C769.687 174.876 771.177 175.501 772.199 176.75C773.249 177.97 773.774 179.716 773.774 181.987V196.378H770.283V182.497C770.283 179.602 769.147 178.155 766.877 178.155Z" fill="#857DE3"/>
<path d="M797.758 184.541V187.096C797.758 190.105 796.977 192.475 795.416 194.206C793.883 195.938 791.683 196.804 788.816 196.804C785.978 196.804 783.778 195.938 782.217 194.206C780.656 192.475 779.875 190.105 779.875 187.096V184.541C779.875 181.589 780.641 179.247 782.174 177.516C783.735 175.756 785.95 174.876 788.816 174.876C791.683 174.876 793.883 175.756 795.416 177.516C796.977 179.247 797.758 181.589 797.758 184.541ZM794.139 184.541C794.139 182.526 793.684 180.951 792.776 179.815C791.868 178.651 790.548 178.069 788.816 178.069C787.113 178.069 785.793 178.651 784.857 179.815C783.948 180.951 783.494 182.526 783.494 184.541V187.096C783.494 189.196 783.948 190.814 784.857 191.95C785.793 193.085 787.113 193.653 788.816 193.653C790.548 193.653 791.868 193.085 792.776 191.95C793.684 190.814 794.139 189.196 794.139 187.096V184.541Z" fill="#857DE3"/>
<path d="M820.793 184.541V187.096C820.793 190.105 820.012 192.475 818.451 194.206C816.918 195.938 814.718 196.804 811.852 196.804C809.013 196.804 806.813 195.938 805.252 194.206C803.691 192.475 802.91 190.105 802.91 187.096V184.541C802.91 181.589 803.677 179.247 805.209 177.516C806.771 175.756 808.985 174.876 811.852 174.876C814.718 174.876 816.918 175.756 818.451 177.516C820.012 179.247 820.793 181.589 820.793 184.541ZM817.174 184.541C817.174 182.526 816.72 180.951 815.811 179.815C814.903 178.651 813.583 178.069 811.852 178.069C810.148 178.069 808.829 178.651 807.892 179.815C806.984 180.951 806.529 182.526 806.529 184.541V187.096C806.529 189.196 806.984 190.814 807.892 191.95C808.829 193.085 810.148 193.653 811.852 193.653C813.583 193.653 814.903 193.085 815.811 191.95C816.72 190.814 817.174 189.196 817.174 187.096V184.541Z" fill="#857DE3"/>
<path d="M827.095 191.268V164.87H830.586V191.098C830.586 191.865 830.7 192.446 830.927 192.844C831.182 193.213 831.679 193.397 832.417 193.397H833.099V196.591H832.119C830.246 196.591 828.94 196.094 828.202 195.1C827.464 194.107 827.095 192.83 827.095 191.268Z" fill="#857DE3"/>
<path d="M843.516 193.695C846.355 193.695 847.774 192.73 847.774 190.8C847.774 189.977 847.518 189.324 847.007 188.842C846.496 188.359 845.56 187.947 844.197 187.607L841.856 187.011C840.124 186.585 838.833 185.847 837.981 184.797C837.129 183.718 836.704 182.441 836.704 180.965C836.704 179.886 836.945 178.893 837.427 177.984C837.91 177.048 838.676 176.295 839.727 175.728C840.777 175.16 842.139 174.876 843.814 174.876C844.893 174.876 845.986 175.004 847.093 175.259C848.228 175.486 849.378 175.884 850.541 176.451L849.434 179.389C847.362 178.453 845.489 177.984 843.814 177.984C841.345 177.984 840.11 178.907 840.11 180.752C840.11 181.461 840.337 182.072 840.791 182.583C841.245 183.094 842.097 183.505 843.346 183.817L845.688 184.413C847.561 184.868 848.938 185.606 849.818 186.628C850.697 187.649 851.137 188.969 851.137 190.587C851.137 191.751 850.882 192.815 850.371 193.781C849.888 194.717 849.094 195.455 847.987 195.995C846.908 196.534 845.446 196.804 843.601 196.804C842.381 196.804 841.16 196.676 839.94 196.42C838.747 196.165 837.513 195.753 836.235 195.186L837.172 192.29C838.393 192.773 839.5 193.128 840.493 193.355C841.487 193.582 842.494 193.695 843.516 193.695Z" fill="#857DE3"/>
<path d="M859 196.378H855.083V192.503H859V196.378Z" fill="#857DE3"/>
</svg>
