<svg width="149" height="198" viewBox="0 0 149 198" fill="none" xmlns="http://www.w3.org/2000/svg">
<path d="M61.875 167.062C61.875 184.149 48.0238 198 30.9375 198C13.8512 198 1.47522e-06 184.149 1.47522e-06 167.062C1.47522e-06 149.976 13.8512 136.125 30.9375 136.125C48.0238 136.125 61.875 149.976 61.875 167.062Z" fill="#857DE3"/>
<path d="M86.625 198C94.7505 198 102.797 196.4 110.304 193.29C117.811 190.181 124.632 185.623 130.377 179.877C136.123 174.132 140.681 167.311 143.79 159.804C146.9 152.297 148.5 144.251 148.5 136.125C148.5 127.999 146.9 119.953 143.79 112.446C140.681 104.939 136.123 98.1184 130.377 92.3728C124.632 86.6271 117.811 82.0695 110.304 78.96C102.797 75.8504 94.7505 74.25 86.625 74.25L86.625 198Z" fill="#857DE3"/>
<path d="M61.875 123.75C53.7495 123.75 45.7035 122.15 38.1965 119.04C30.6894 115.931 23.8684 111.373 18.1228 105.627C12.3771 99.8816 7.81946 93.0605 4.70996 85.5535C1.60045 78.0465 -3.55179e-07 70.0005 0 61.875C3.55179e-07 53.7494 1.60045 45.7035 4.70996 38.1965C7.81947 30.6894 12.3771 23.8684 18.1228 18.1228C23.8684 12.3771 30.6894 7.81946 38.1965 4.70995C45.7035 1.60044 53.7495 -7.10357e-07 61.875 0L61.875 123.75Z" fill="#857DE3"/>
<path d="M148.5 61.875V0H86.625C86.625 34.1726 114.327 61.875 148.5 61.875Z" fill="#857DE3"/>
</svg>
