<svg width="729" height="617" viewBox="0 0 729 617" fill="none" xmlns="http://www.w3.org/2000/svg">
<path d="M142.959 132.36C179.507 132.36 209.135 102.732 209.135 66.1841C209.135 29.6361 179.507 0.00805664 142.959 0.00805664C106.411 0.00805664 76.7832 29.6361 76.7832 66.1841C76.7832 102.732 106.411 132.36 142.959 132.36Z" fill="#857DE3"/>
<path d="M268.264 150.152V149.832H31.176V150.048C14.04 150.048 0.151998 163.88 0.0239983 180.984H0V368.496H0.312C0.296 375.64 3.008 382.784 8.456 388.232C19.32 399.104 36.936 399.104 47.808 388.232C53.248 382.784 55.96 375.64 55.944 368.496H56.008V238.976V237.6H56.08C56.28 232.864 60.12 229.088 64.888 229.088C69.672 229.088 73.512 232.872 73.712 237.6H73.784V238.976V322.496V580.84C73.808 598.8 88.36 613.344 106.328 613.344C124.296 613.344 138.872 598.776 138.872 580.8V407.968H139.112C139.112 402.984 143.144 398.944 148.12 398.944C153.096 398.944 157.136 402.984 157.136 407.968H157.368V580.8C157.368 598.776 171.952 613.344 189.92 613.344C207.896 613.344 222.464 598.776 222.464 580.8V407.968V322.496V238.976V237.6C222.464 232.68 226.44 228.704 231.36 228.704C236.264 228.704 240.24 232.68 240.24 237.6V238.976V368.504H240.544C240.528 375.648 243.24 382.792 248.688 388.24C259.56 399.112 277.176 399.112 288.048 388.24C293.496 382.792 296.208 375.648 296.192 368.504H296.248V180.992C296.264 164.872 283.968 151.76 268.264 150.152Z" fill="#857DE3"/>
<path d="M542.648 133.12C579.408 133.12 609.208 103.32 609.208 66.56C609.208 29.7999 579.408 0 542.648 0C505.888 0 476.088 29.7999 476.088 66.56C476.088 103.32 505.888 133.12 542.648 133.12Z" fill="#FAD22C"/>
<path d="M728.543 341.704L684.143 176.008C684.119 175.88 684.071 175.752 684.039 175.624L683.255 172.704L683.143 172.736C679.095 160.104 667.399 150.904 653.423 150.904C653.311 150.904 653.215 150.936 653.103 150.936V150.36H444.143V150.904C430.167 150.904 418.471 160.112 414.423 172.736L414.311 172.704L413.527 175.616C413.495 175.752 413.447 175.88 413.423 176.016L369.023 341.704L369.439 341.816C369.239 343.184 369.023 344.552 369.023 345.976C369.023 361.592 381.687 374.264 397.311 374.264C409.271 374.264 419.447 366.808 423.575 356.312L423.775 356.368L456.343 234.824V235.28H456.599C457.487 231.28 460.887 228.224 465.159 228.224C469.431 228.224 472.831 231.28 473.719 235.28H473.983V236.592C473.999 236.792 474.103 236.968 474.103 237.168C474.103 237.368 473.999 237.544 473.983 237.744V238.984L421.839 433.592C420.999 435.304 420.487 437.184 420.343 439.176L420.231 439.584L420.295 439.6C420.287 439.824 420.231 440.032 420.231 440.256C420.231 448.64 427.031 455.432 435.415 455.432H473.975V584.072C473.975 602.144 488.623 616.792 506.703 616.792C524.775 616.792 539.431 602.136 539.431 584.072V455.432H558.039V584.072C558.039 602.144 572.695 616.792 590.767 616.792C608.847 616.792 623.495 602.136 623.495 584.072V455.432H662.175C670.559 455.432 677.359 448.64 677.359 440.256C677.359 440.032 677.303 439.816 677.295 439.6L677.359 439.584L677.247 439.176C677.103 437.184 676.591 435.304 675.751 433.592L623.759 239.568L623.927 239.52C623.711 238.752 623.447 237.992 623.447 237.152C623.447 232.224 627.447 228.208 632.391 228.208C636.591 228.208 639.959 231.176 640.911 235.088L641.255 235L673.775 356.352L673.967 356.296C678.103 366.792 688.271 374.248 700.231 374.248C715.855 374.248 728.519 361.576 728.519 345.96C728.519 344.536 728.303 343.168 728.103 341.8L728.543 341.704Z" fill="#FAD22C"/>
</svg>
