<svg width="800" height="436" viewBox="0 0 800 436" fill="none" xmlns="http://www.w3.org/2000/svg">
<path d="M400 435.378C310.039 435.378 213.219 400.195 120.007 333.631C50.3267 283.873 7.31879 234.576 5.52167 232.498C-1.84056 223.998 -1.84056 211.38 5.52167 202.878C7.31879 200.804 50.3249 151.503 120.007 101.745C213.221 35.186 310.041 0 400 0C489.961 0 586.783 35.1841 679.993 101.745C749.673 151.503 792.681 200.802 794.478 202.878C801.841 211.378 801.841 223.996 794.478 232.498C792.681 234.572 749.675 283.873 679.993 333.631C586.783 400.194 489.963 435.378 400 435.378ZM53.6386 217.691C71.0307 235.425 103.855 266.609 147.194 297.45C206.609 339.729 298.699 390.133 400 390.133C501.301 390.133 593.392 339.729 652.806 297.45C696.14 266.615 728.966 235.427 746.361 217.691C728.971 199.957 696.145 168.772 652.806 137.931C593.392 95.6511 501.301 45.2484 400 45.2484C298.699 45.2484 206.609 95.6511 147.194 137.931C103.86 168.767 71.0343 199.951 53.6386 217.691Z" fill="white"/>
<path d="M400 357.949C322.66 357.949 259.741 295.028 259.741 217.691C259.741 140.353 322.66 77.4319 400 77.4319C434.013 77.4319 466.825 89.7638 492.386 112.158C501.784 120.391 502.729 134.683 494.496 144.081C486.264 153.479 471.97 154.422 462.574 146.191C445.265 131.027 423.04 122.677 399.998 122.677C347.607 122.677 304.984 165.301 304.984 217.691C304.984 270.081 347.607 312.705 399.998 312.705C452.392 312.705 495.012 270.081 495.012 217.691C495.012 205.198 505.142 195.068 517.635 195.068C530.128 195.068 540.257 205.198 540.257 217.691C540.261 295.028 477.34 357.949 400 357.949Z" fill="white"/>
<path d="M400 262.935C375.052 262.935 354.755 242.639 354.755 217.691C354.755 192.743 375.052 172.446 400 172.446C424.95 172.446 445.245 192.743 445.245 217.691C445.245 242.639 424.95 262.935 400 262.935Z" fill="white"/>
</svg>
